<svg xmlns="http://www.w3.org/2000/svg" width="342" height="473" viewBox="0 0 342 473">
  <title>click</title>
  <g id="Layer_2" data-name="Layer 2">
    <g id="Layer_1-2" data-name="Layer 1">
      <g>
        <path d="M277.44,233.92A47.26,47.26,0,0,0,220,220.19a47.25,47.25,0,0,0-40.68-14.11V153.16C179.36,126.6,158,105,131.71,105s-47.64,21.6-47.64,48.16V269a47.06,47.06,0,0,0-44.62,6.37A48.48,48.48,0,0,0,29,342.3L107.84,453a47.6,47.6,0,0,0,38.66,20H274.64A47.78,47.78,0,0,0,321,435.77l19.72-85.53A49,49,0,0,0,342,339.31V278.94C342,245.27,308.49,222,277.44,233.92ZM307.5,339.31a14.16,14.16,0,0,1-.36,3.18L287.42,428a13.21,13.21,0,0,1-12.78,10.48H146.5A13,13,0,0,1,135.94,433L57.08,322.28C46.73,307.75,67.86,291.5,78.21,306L97.7,333.4c6.47,9.08,20.87,4.52,20.87-6.67V153.16c0-18.06,26.29-18.09,26.29,0V278.94a11.5,11.5,0,0,0,11.5,11.5h4.92a11.5,11.5,0,0,0,11.5-11.5V253.78c0-18.05,26.29-18.08,26.29,0v25.16a11.5,11.5,0,0,0,11.5,11.5h4.93a11.5,11.5,0,0,0,11.5-11.5v-15.1c0-18,26.29-18.08,26.29,0v15.1a11.5,11.5,0,0,0,11.5,11.5h4.92a11.5,11.5,0,0,0,11.5-11.5c0-18.06,26.29-18.09,26.29,0Z" style="fill: #81878c"/>
        <path d="M59,128H15a15,15,0,0,1,0-30H59a15,15,0,0,1,0,30Z" style="fill: #81878c"/>
        <path d="M249,128H205a15,15,0,0,1,0-30h44a15,15,0,0,1,0,30Z" style="fill: #81878c"/>
        <path d="M130,74a15,15,0,0,1-15-15V15a15,15,0,0,1,30,0V59A15,15,0,0,1,130,74Z" style="fill: #81878c"/>
        <path d="M85.56,89.56A15,15,0,0,1,75,85.16L43.84,54.05A15,15,0,0,1,65.05,32.84L96.16,64a15,15,0,0,1-10.6,25.61Z" style="fill: #81878c"/>
        <path d="M178.44,89.56A15,15,0,0,1,167.84,64L199,32.84a15,15,0,1,1,21.21,21.21L189.05,85.16A15,15,0,0,1,178.44,89.56Z" style="fill: #81878c"/>
      </g>
    </g>
  </g>
</svg>
