<svg xmlns="http://www.w3.org/2000/svg" width="407" height="453" viewBox="0 0 407 453">
  <title>drag</title>
  <g id="Layer_2" data-name="Layer 2">
    <g id="Layer_1-2" data-name="Layer 1">
      <g>
        <path d="M305,157.66a54.73,54.73,0,0,0-72.79-17.38,54.71,54.71,0,0,0-79.8,0c-34.74-19.91-80.08,3.72-81.52,44.79-34-8-67.07,17.49-67.07,52.43v41.95a83.69,83.69,0,0,0,28.86,63.08l72,62.67c3.13,2.73,2.29,4.11,2.29,24.24A23.57,23.57,0,0,0,130.5,453H316.13a23.57,23.57,0,0,0,23.57-23.57c0-17.32-.75-22.65,2.93-31.21l31.55-73.41A82.65,82.65,0,0,0,381,292v-84.3C381,168.76,340.94,142.37,305,157.66ZM345.59,292a47.65,47.65,0,0,1-3.89,18.87l-31.55,73.41a70.8,70.8,0,0,0-5.81,28.17v5.21h-162v-7.57a41.84,41.84,0,0,0-14.43-31.54l-72-62.67a48.39,48.39,0,0,1-16.72-36.42V237.49c0-24.46,38.3-24.7,38.3.5v30.37a11.79,11.79,0,0,0,4.05,8.89l5.16,4.49a11.79,11.79,0,0,0,19.52-8.89V187c0-24.38,38.31-24.84,38.31.5v19.7A11.78,11.78,0,0,0,156.28,219h5.16a11.78,11.78,0,0,0,11.78-11.79v-30.3c0-24.41,38.31-24.81,38.31.5v29.8A11.78,11.78,0,0,0,223.31,219h5.16a11.78,11.78,0,0,0,11.78-11.79V187c0-24.33,38.31-24.88,38.31.5v19.7A11.78,11.78,0,0,0,290.34,219h5.16a11.79,11.79,0,0,0,11.79-11.79c0-24.41,38.3-24.76,38.3.5Z" style="fill: #81878c"/>
        <path d="M378,74H15a15,15,0,0,1,0-30H378a15,15,0,0,1,0,30Z" style="fill: #81878c"/>
        <path d="M59,118a15,15,0,0,1-10.61-4.39l-44-44a15,15,0,0,1,0-21.22l44-44A15,15,0,0,1,69.61,25.61L36.21,59l33.4,33.39A15,15,0,0,1,59,118Z" style="fill: #81878c"/>
        <path d="M348,118a15,15,0,0,1-10.61-25.61L370.79,59l-33.4-33.39A15,15,0,0,1,358.61,4.39l44,44a15,15,0,0,1,0,21.22l-44,44A15,15,0,0,1,348,118Z" style="fill: #81878c"/>
      </g>
    </g>
  </g>
</svg>
